<svg width="10" height="16" viewBox="0 0 10 16" fill="none" xmlns="http://www.w3.org/2000/svg">
<path d="M9.32792 10.8354C9.32792 11.7594 9.02792 12.5274 8.42792 13.1394C7.82792 13.7514 7.01192 14.1414 5.97992 14.3094V15.6414H4.17992V14.3274C3.44792 14.2314 2.77592 14.0034 2.16392 13.6434C1.56392 13.2834 1.06592 12.8154 0.669922 12.2394L2.01992 10.9434C2.40392 11.4114 2.87192 11.7954 3.42392 12.0954C3.98792 12.3954 4.52792 12.5454 5.04392 12.5454C5.65592 12.5454 6.14192 12.4014 6.50192 12.1134C6.87392 11.8254 7.05992 11.4474 7.05992 10.9794C7.05992 10.6434 6.99992 10.3674 6.87992 10.1514C6.75992 9.92338 6.53792 9.70138 6.21392 9.48538C5.88992 9.25738 5.39192 8.97538 4.71992 8.63938C3.83192 8.20738 3.12992 7.79938 2.61392 7.41538C2.09792 7.03138 1.71992 6.62338 1.47992 6.19138C1.23992 5.75938 1.11992 5.26138 1.11992 4.69738C1.11992 3.85738 1.38992 3.15538 1.92992 2.59138C2.48192 2.02738 3.23192 1.66138 4.17992 1.49338V0.359375H5.97992V1.47538C6.67592 1.57138 7.29392 1.78738 7.83392 2.12338C8.38592 2.44738 8.79392 2.86138 9.05792 3.36538L7.59992 4.44537C7.31192 4.07338 6.96392 3.78538 6.55592 3.58138C6.15992 3.36538 5.73392 3.25738 5.27792 3.25738C4.68992 3.25738 4.22792 3.38338 3.89192 3.63538C3.56792 3.87538 3.40592 4.21738 3.40592 4.66138C3.40592 4.93738 3.47792 5.17738 3.62192 5.38138C3.77792 5.57338 4.04792 5.78938 4.43192 6.02938C4.82792 6.26938 5.42792 6.58138 6.23192 6.96538C7.37192 7.50538 8.16992 8.06938 8.62592 8.65738C9.09392 9.23338 9.32792 9.95938 9.32792 10.8354Z" fill="white"/>
</svg>
