<svg width="16" height="16" viewBox="0 0 16 16" fill="none" xmlns="http://www.w3.org/2000/svg">
<g clip-path="url(#clip0)">
<path d="M14.5714 14.2854C14.931 14.2854 15.2427 14.1666 15.5076 13.9322L10.9745 9.39892C10.8658 9.47681 10.7603 9.55254 10.6608 9.62455C10.3215 9.87449 10.0462 10.0695 9.83479 10.2093C9.6234 10.3493 9.34215 10.4921 8.99107 10.6379C8.63975 10.7838 8.31245 10.8566 8.00883 10.8566H7.99995H7.99106C7.68741 10.8566 7.36011 10.7839 7.00882 10.6379C6.65754 10.4921 6.37628 10.3493 6.1651 10.2093C5.95371 10.0695 5.67853 9.87451 5.33912 9.62455C5.24454 9.55521 5.13964 9.47913 5.02624 9.39771L0.49231 13.9322C0.757207 14.1666 1.06905 14.2854 1.42867 14.2854H14.5714Z" fill="white"/>
<path d="M0.901882 6.54446C0.562678 6.31832 0.261876 6.05932 0 5.76758V12.6645L3.99542 8.6691C3.19611 8.11107 2.16624 7.40367 0.901882 6.54446Z" fill="white"/>
<path d="M15.1072 6.54446C13.8911 7.36759 12.8575 8.07621 12.0062 8.6707L16.0001 12.6647V5.76758C15.744 6.05345 15.4464 6.31227 15.1072 6.54446Z" fill="white"/>
<path d="M14.5713 1.71411H1.42861C0.970096 1.71411 0.617587 1.86894 0.370642 2.17828C0.123493 2.48777 0.00012207 2.87482 0.00012207 3.33899C0.00012207 3.71393 0.163842 4.12018 0.491137 4.55786C0.818432 4.99536 1.1667 5.33901 1.53577 5.58898C1.73809 5.73193 2.34824 6.1561 3.3662 6.86135C3.91572 7.24215 4.39361 7.57406 4.80427 7.86049C5.15431 8.10438 5.45619 8.31559 5.70543 8.49088C5.73404 8.51095 5.77904 8.54313 5.83876 8.58584C5.90311 8.63205 5.98453 8.6907 6.08498 8.76324C6.27842 8.90314 6.43912 9.01622 6.56711 9.10262C6.69492 9.18904 6.84978 9.28557 7.03146 9.39276C7.21298 9.4998 7.3842 9.5803 7.5449 9.63383C7.70562 9.68734 7.85441 9.71418 7.99129 9.71418H8.00018H8.00907C8.14592 9.71418 8.29474 9.68734 8.45549 9.63383C8.61616 9.5803 8.78723 9.49998 8.96891 9.39276C9.1504 9.28557 9.30506 9.18883 9.43328 9.10262C9.56127 9.01622 9.72197 8.90317 9.91544 8.76324C10.0157 8.6907 10.0971 8.63202 10.1615 8.58598C10.2212 8.54311 10.2662 8.51112 10.295 8.49088C10.4891 8.35577 10.7917 8.14543 11.1985 7.86295C11.9387 7.34864 13.0289 6.59166 14.4735 5.58898C14.908 5.2855 15.271 4.91928 15.5628 4.49084C15.854 4.0624 16 3.61298 16 3.14274C16 2.74985 15.8584 2.41367 15.5759 2.13366C15.2931 1.85401 14.9582 1.71411 14.5713 1.71411Z" fill="white"/>
</g>
<defs>
<clipPath id="clip0">
<rect width="16" height="16" fill="white"/>
</clipPath>
</defs>
</svg>
