<svg width="14" height="14" viewBox="0 0 14 14" fill="none" xmlns="http://www.w3.org/2000/svg">
<path d="M13.6191 13.4953L12.4745 11.5873C11.9458 10.7067 11.6665 9.698 11.6665 8.67134V7C11.6665 4.89 10.2585 3.10534 8.33314 2.53V1.33334C8.33314 0.598 7.73514 0 6.9998 0C6.26446 0 5.66646 0.598 5.66646 1.33334V2.53C3.74114 3.10534 2.33314 4.89 2.33314 7V8.67134C2.33314 9.698 2.0538 10.706 1.5258 11.5867L0.381144 13.4947C0.319144 13.598 0.3178 13.726 0.377144 13.8307C0.436488 13.9353 0.546488 14 0.666488 14H13.3331C13.4531 14 13.5638 13.9354 13.6231 13.8314C13.6825 13.7273 13.6805 13.598 13.6191 13.4953Z" fill="white"/>
</svg>
