<svg width="14" height="16" viewBox="0 0 14 16" fill="none" xmlns="http://www.w3.org/2000/svg">
<path d="M13.7154 4.11839C13.6962 3.69746 13.6962 3.29567 13.6962 2.89387C13.6962 2.56861 13.4475 2.31988 13.1223 2.31988C10.7306 2.31988 8.91298 1.63109 7.40147 0.157848C7.17188 -0.0526159 6.82748 -0.0526159 6.59789 0.157848C5.08638 1.63109 3.26874 2.31988 0.877109 2.31988C0.551848 2.31988 0.303118 2.56861 0.303118 2.89387C0.303118 3.29567 0.303118 3.69746 0.283985 4.11839C0.207453 8.13632 0.0926547 13.6466 6.80835 15.9617L6.99968 16L7.19101 15.9617C13.8876 13.6466 13.7919 8.15545 13.7154 4.11839Z" fill="white"/>
</svg>
