<svg width="10" height="16" viewBox="0 0 10 16" fill="none" xmlns="http://www.w3.org/2000/svg">
<path d="M3.88 11.4998C3.81334 11.2331 3.78 10.9598 3.78 10.6798C3.78 10.1198 3.90667 9.5998 4.16001 9.11981C4.41334 8.63981 4.78667 8.07314 5.28 7.41981C5.73334 6.83314 6.07334 6.32647 6.3 5.89981C6.52667 5.47314 6.64001 5.03314 6.64001 4.5798C6.64001 3.95314 6.47334 3.47981 6.14001 3.15981C5.80667 2.82647 5.32667 2.6598 4.70001 2.6598C4.19334 2.6598 3.70667 2.81314 3.24001 3.1198C2.78667 3.42647 2.40667 3.84647 2.10001 4.37981L0.880005 2.9598C1.26667 2.2798 1.82 1.75314 2.54 1.3798C3.26 0.993138 4.07334 0.799805 4.98001 0.799805C6.28667 0.799805 7.3 1.1198 8.02 1.7598C8.75334 2.3998 9.12 3.2798 9.12 4.3998C9.12 4.9998 8.98001 5.53981 8.70001 6.0198C8.43334 6.4998 8.02667 7.07314 7.48001 7.73981C6.97334 8.33981 6.58667 8.86647 6.32001 9.31981C6.06667 9.7598 5.94 10.2398 5.94 10.7598C5.94 11.0265 5.96 11.2731 6.00001 11.4998H3.88ZM5.02001 15.1998C4.56667 15.1998 4.20001 15.0665 3.92001 14.7998C3.64001 14.5331 3.50001 14.1865 3.50001 13.7598C3.50001 13.3331 3.64001 12.9865 3.92001 12.7198C4.20001 12.4531 4.56667 12.3198 5.02001 12.3198C5.47334 12.3198 5.84 12.4531 6.12001 12.7198C6.40001 12.9865 6.54 13.3331 6.54 13.7598C6.54 14.1865 6.40001 14.5331 6.12001 14.7998C5.84 15.0665 5.47334 15.1998 5.02001 15.1998Z" fill="white"/>
</svg>
