<svg width="16" height="16" viewBox="0 0 16 16" fill="none" xmlns="http://www.w3.org/2000/svg">
<g clip-path="url(#clip0)">
<path d="M8.27625 7.72694H11.5818C11.5478 6.52644 11.2966 5.36155 10.8462 4.28198C10.0152 4.5233 9.15343 4.6561 8.27625 4.67957V7.72694Z" fill="white"/>
<path d="M11.1502 3.60521C11.9586 3.32635 12.7325 2.94477 13.4496 2.45413L13.6299 2.31608C12.3109 1.01011 10.5416 0.160255 8.57881 0.019165L8.43579 0.135405C9.5993 1.09873 10.5193 2.28295 11.1502 3.60521Z" fill="white"/>
<path d="M8.27625 0.725708V4.12732C9.07446 4.10468 9.8586 3.98568 10.6157 3.77308C10.056 2.62448 9.26525 1.58854 8.27625 0.725708Z" fill="white"/>
<path d="M11.4669 11.6522C12.3311 11.9647 13.1567 12.3888 13.9201 12.933L14.1598 13.1125C15.2576 11.7914 15.9376 10.1124 16 8.2793H12.134C12.1028 9.44943 11.8742 10.5867 11.4669 11.6522Z" fill="white"/>
<path d="M2.55037 2.45413C3.26741 2.94477 4.04161 3.32607 4.84977 3.60521C5.48067 2.28322 6.40065 1.09901 7.56443 0.135405L7.42141 0.019165C5.45416 0.160531 3.68102 1.01397 2.36096 2.32464L2.55037 2.45413Z" fill="white"/>
<path d="M7.72408 0.725708C6.7348 1.58854 5.94431 2.62476 5.38464 3.7728C6.14172 3.9854 6.92586 4.10468 7.72408 4.12704V0.725708Z" fill="white"/>
<path d="M3.8663 8.27905H0C0.0626758 10.1121 0.742446 11.7908 1.84024 13.1123L2.07493 12.9369C2.84112 12.3911 3.66833 11.9656 4.53392 11.6525C4.12583 10.5862 3.8975 9.44891 3.8663 8.27905Z" fill="white"/>
<path d="M4.62531 4.11126C3.78678 3.81748 2.98386 3.41961 2.23866 2.90993L1.97967 2.73267C0.80098 4.07757 0.0651607 5.81814 0 7.72685H3.8663C3.8997 6.46781 4.15842 5.24522 4.62531 4.11126Z" fill="white"/>
<path d="M4.41846 7.72688H7.72398V4.67951C6.84625 4.65604 5.98425 4.52323 5.15372 4.28247C4.7034 5.36176 4.45214 6.52637 4.41846 7.72688Z" fill="white"/>
<path d="M7.53682 15.8461C6.31671 14.8259 5.37188 13.5658 4.74512 12.1626C3.91902 12.4591 3.12963 12.8634 2.40044 13.383L2.21021 13.5252C3.52833 14.9065 5.33295 15.818 7.34714 15.9814L7.53682 15.8461Z" fill="white"/>
<path d="M7.72398 11.0506V8.27905H4.41846C4.44966 9.38872 4.66833 10.4669 5.05709 11.4763C5.9166 11.2174 6.81118 11.0749 7.72398 11.0506Z" fill="white"/>
<path d="M13.5943 13.3791C12.8679 12.8614 12.0807 12.4583 11.256 12.1626C10.6287 13.5691 9.68275 14.8303 8.46375 15.8469L8.65288 15.9814C10.6671 15.818 12.472 14.9068 13.7901 13.5255L13.5943 13.3791Z" fill="white"/>
<path d="M13.7735 2.90106C13.0225 3.41517 12.2154 3.81525 11.3744 4.1104C11.8416 5.24464 12.1003 6.46751 12.134 7.72682H16.0003C15.9348 5.81204 15.1949 4.06678 14.0098 2.72021L13.7735 2.90106Z" fill="white"/>
<path d="M7.72397 15.2802V11.6028C6.88489 11.6263 6.06292 11.7563 5.27161 11.9893C5.83569 13.2343 6.66538 14.3569 7.72397 15.2802Z" fill="white"/>
<path d="M11.5818 8.27905H8.27625V11.0506C9.18932 11.0749 10.0842 11.2174 10.944 11.4763C11.3316 10.4672 11.5503 9.38899 11.5818 8.27905Z" fill="white"/>
<path d="M10.7294 11.9893C9.93812 11.7563 9.1156 11.6265 8.27625 11.6028V15.2813C9.334 14.3611 10.1645 13.2373 10.7294 11.9893Z" fill="white"/>
</g>
<defs>
<clipPath id="clip0">
<rect width="16" height="16" fill="white"/>
</clipPath>
</defs>
</svg>
